/* XPM */
static char * small_xpm[] = {
"1536 8 3 1",
" 	c None",
"+	c #188A86",
"@	c #20B2AE",
"                                                                                                                                                                                                        +    @ @          +         +@@+         +@    @+                                       +@@@+   +   +@@@+ +@@@+ +   + +@@@+ +@@@+ +@@@+ +@@@+ +@@@+                @         @    +@@@+ +@@@+ +@@@+ +@@@   @@@+ +@@@  +@@@+ +@@@+ +@@@+ +   +   +       + +   + +     @   @ @   + +@@@+ +@@@+ +@@@+ +@@@+ +@@@+ +@@@+ +   + +   + +   + +   + +   + +@@@+  @@+         +@@    @                     +               +        +@@+       +                 +       +                                               +                                         ++         ++                                                                                                                                                                                                                                                                                                                                                                                                                                                                                                                                                                                                                                                                                                                                                                                                               ",
"                                                                                                                                                                                                        @    + +   + +  +@@@+    @  @  @    @    @      @   + + +   +                        @  @   @   @       @     @ @   @ @     @         @ @   @ @   @   @           @           @   @   @ @   @ @   @ @   @ @     @   @ @     @     @     @   @   @       @ @   @ @     @@ @@ @@  @ @   @ @   @ @   @ @   @ @       @   @   @ @   @ @   @ @   @ @   @     @  @     @       @   @ @          @         @               @        @  @       @       @      @  @       @                                               @                                         @     @     @                                                                                                                                                                                                                                                                                                                                                                                                                                                                                                                                                                                                                                                                                                                                                                                                               ",
"                                                                                                                                                                                                        @         +@@@+ @ @   @  @  @  @    +    @      @    @@@    @                        @  @   @   @       @     @ @   @ @     @         @ @   @ @   @   @     @    @             @      @ @ + @ @   @ @   @ @     @   @ @     @     @     @   @   @       @ @   @ @     @ @ @ @ @ @ @   @ @   @ @   @ @   @ @       @   @   @ @   @ @   @  @ @  @   @    @   @     @       @                +   +@@@+ @               @ +@@@+  @    +@@@@ @                 @  @+   @                     @@@@+ +@@@@ @+@@+ +@@@+ +@@@+                   +   + +   + +@@@+   @     @     @     @ @                                                                                                                                                                                                                                                                                                                                                                                                                                                                                                                                                                                                                                                                                                                                                                                                       ",
"                                                                                                                                                                                                        @          @ @  +@@@+   @   @@@          @      @     @   +@@@+       +@@@+         @   @   @   @   +@@@+  @@@+ +@@@@ +@@@+ @@@@+     @ +@@@+ +@@@@         @   @               @    @  @ @ @ @@@@@ @@@@  @     @   @ @@@@  @@@@  @ +@+ @@@@@   @       @ @@@@  @     @   @ @ @ @ @   @ @@@@+ @@  @ @@@@  +@@@+   @   @   @ @   @ @   @   @   +@@@+   @    @      @      @                        @ @@@@+ @@@@+ +@@@@ @   @ @@@   @   @ @@@@+   +      +  @ @     @   @@+@+ @@@@+ +@@@+ @   @ @   @ @   + @       @   +   + +   + +   +  @ @  @   @    @   @      @      @   @ @                                                                                                                                                                                                                                                                                                                                                                                                                                                                                                                                                                                                                                                                                                                                                                                                        ",
"                                                                                                                                                                                                        @         +@@@+   @ @   @   @+@ @        @      @    @@@    @                       @   @   @   @   @         @     @     @ @   @     @ @   @     @   @          @             @    @   @ +@@ @   @ @   @ @     @   @ @     @     @   @ @   @   @   +   @ @   @ @     @   @ @  +@ @   @ @     @ @ @ @   @     @   @   @   @ @   @ @ @ @  @ @    @    @     @      @      @                    +@@@@ @   @ @     @   @ @@@@+  @    +@@@@ @   @   @      @  @@      @   @ @ @ @   @ @   @ @@@@+ +@@@@ @     +@@@+   @   @   @ @   @ @ + @   @   +@@@@   @     @     @     @                                                                                                                                                                                                                                                                                                                                                                                                                                                                                                                                                                                                                                                                                                                                                                                                               ",
"                                                                                                                                                                                                                   + +  +@@@+  @  @ @  @         @      @   + + +   +     @                @    @   @   @   @         @     @     @ @   @     @ @   @     @   @     @     @           @         @     @   @ @   @ @     @   @ @     @     @   @ @   @   @   @   @ @   @ @     @   @ @  @@ @   @ @     @  @@ @   @     @   @   @   @ @   @ @@ @@ @   @   @   @      @       @     @                    @   @ @   @ @     @   @ @      @        @ @   @   @    @ @  @ @     @   @ @ @ @   @ @   @ @         @ @         @   @   @   @  @ @  @ @ @  @ @      @  @      @     @     @                                                                                                                                                                                                                                                                                                                                                                                                                                                                                                                                                                                                                                                                                                                                                                                                               ",
"                                                                                                                                                                                                        @                 +    @    +@@+@        +@    @+                 +           @    @    +@@@+   +   +@@@+ +@@@+     + +@@@+ +@@@+     + +@@@+ +@@@+         +      @         @      @   +@@@+ +   + +@@@   @@@+ +@@@  +@@@+ +     +@@@+ +   +   +   +@@@+ +   + +@@@+ +   + +   @ +@@@+ +     +@@@+ +   + +@@@+   +   +@@@@  @@@  +   + +   +   @   +@@@+  @@+     @   +@@        @@@@@       +@@@+ @@@@+ @@@@+ +@@@@ +@@@+  @    +@@@+ +   +   +    +@+  +  @+   +   + + + +   + +@@@+ +         @ +     +@@@+   +   +@@@@   @   +@+@+ +   + +@@@+ +@@@+   ++    @    ++                                                                                                                                                                                                                                                                                                                                                                                                                                                                                                                                                                                                                                                                                                                                                                                                               ",
"                                                                                                                                                                                                                                                                                                                                                                                                                                                                                                                                                                                                                                                                                                                                                                                                                                                                                                                                                                                                                                                                                                                                                                                                                                                                                                                                                                                                                                                                                                                                                                                                "};


/*
 * This originates from wmsvencd 0.5
 * 
 * This program is Copyright (c)1999 Steven Cook
 * 
 * This program is free software; you can redistribute it and/or modify it under
 * the terms of the GNU General Public License as published by the Free Software
 * Foundation; either version 2 of the License, or (at your option) any later
 * version.
 * 
 * This program is distributed in the hope that it will be useful, but WITHOUT
 * ANY WARRANTY; without even the implied warranty of MERCHANTABILITY or FITNESS
 * FOR A PARTICULAR PURPOSE. See the GNU General Public License for more details.
 * 
 * You should have recieved a copy of the GNU General Public License along with
 * this program; if not, write to the Free Software Foundation, Inc., 675 Mass
 * Ave, Cambridge, MA 02139, USA.
 */
