/* XPM */
static char * eject_xpm[] = {
"9 9 3 1",
" 	c None",
".	c #ACAAAC",
"+	c #000000",
".........",
"....+....",
"...+++...",
"..+++++..",
".+++++++.",
".........",
".+++++++.",
".+++++++.",
"........."};

/*
 * Icon taken from wmsvencd-0.5.0, originates from wmcdplay
 *
 * wmcdplay - A cd player designed for WindowMaker
 * 05/09/98  Release 1.0 Beta1
 * Copyright (C) 1998  Sam Hawker <shawkie@geocities.com>

 * This program is free software; you can redistribute it and/or modify it under
 * the terms of the GNU General Public License as published by the Free Software
 * Foundation; either version 2 of the License, or (at your option) any later
 * version.
 *
 * This program is distributed in the hope that it will be useful, but WITHOUT
 * ANY WARRANTY; without even the implied warranty of MERCHANTABILITY or FITNESS
 * FOR A PARTICULAR PURPOSE. See the GNU General Public License for more details.
 *
 * You should have recieved a copy of the GNU General Public License along with
 * this program; if not, write to the Free Software Foundation, Inc., 675 Mass
 * Ave, Cambridge, MA 02139, USA.
 */
